<svg xmlns="http://www.w3.org/2000/svg" viewBox="0 0 1000 400"><defs><style>.a{fill:#fff;}.b{stroke:rgba(0,0,0,0);}.c{fill:none;stroke:#000;stroke-width:10px;}</style></defs><rect class="a" width="1000" height="400"/><path class="b" d="M-5000-193.5a145.569,145.569,0,0,1-29.122-2.936,143.773,143.773,0,0,1-27.124-8.42,144.491,144.491,0,0,1-24.545-13.323,145.522,145.522,0,0,1-21.386-17.645,145.567,145.567,0,0,1-17.645-21.386,144.531,144.531,0,0,1-13.323-24.545,143.793,143.793,0,0,1-8.42-27.124A145.6,145.6,0,0,1-5144.5-338a146.109,146.109,0,0,1,1.919-23.612h-9.934V-293H-5171.5v-68.613h-23.849v-15.411h56.178a144.229,144.229,0,0,0-3.411,15.411h14.03v-15.411h-10.619a143.607,143.607,0,0,1,19.607-42.151,144.99,144.99,0,0,1,31.506-33.405,143.913,143.913,0,0,1,40.742-22A144.215,144.215,0,0,1-5000-482.5a143.976,143.976,0,0,1,98.652,38.919,145.674,145.674,0,0,1,17.623,19.777,144.874,144.874,0,0,1,13.791,22.781,143.89,143.89,0,0,1,9.453,25.277,144.591,144.591,0,0,1,4.606,27.266l10.39-28.543h22.442L-4793.16-293h-20.625l-5.977-18.691h-29.882L-4855.562-293h-7.083a144.368,144.368,0,0,0,7.145-45c0-3.49-.126-7.016-.375-10.48l-19.77,54.313-15.133-23.676c-.812-1.276-1.728-2.607-2.725-3.956a43.017,43.017,0,0,0-3.134-3.779,26.07,26.07,0,0,0-3.4-3.076,12.086,12.086,0,0,0-3.634-1.9v-.235a30.818,30.818,0,0,0,7.765-3.4,24.234,24.234,0,0,0,5.947-5.156,22.645,22.645,0,0,0,3.809-6.708,23.778,23.778,0,0,0,1.347-8.116,24.457,24.457,0,0,0-1.912-10,17.964,17.964,0,0,0-5.734-7.141A26.615,26.615,0,0,0-4902-375.6a56.016,56.016,0,0,0-13.381-1.428h-30V-293h18.925v-32.169h5.1a7.318,7.318,0,0,1,3.251.733,10.9,10.9,0,0,1,2.871,2.109,24.547,24.547,0,0,1,2.725,3.31c.9,1.288,1.843,2.766,2.812,4.394L-4896.637-293h33.992a143.858,143.858,0,0,1-20.429,39.918,145.1,145.1,0,0,1-31.308,31.5,143.886,143.886,0,0,1-39.778,20.664A144.3,144.3,0,0,1-5000-193.5Zm10.786-184.93a55.378,55.378,0,0,0-19.1,3.12,41.717,41.717,0,0,0-14.883,9.36,41.025,41.025,0,0,0-9.581,14.312,48.694,48.694,0,0,0-3.193,17.974,49.64,49.64,0,0,0,2.923,17.57,35.954,35.954,0,0,0,8.767,13.337,37.948,37.948,0,0,0,13.836,8.416,54.8,54.8,0,0,0,18.128,2.805,74.7,74.7,0,0,0,16.787-1.772,50.375,50.375,0,0,0,13.8-5.318v-42.246h-35.743v15.117h16.816v16.406c-2.644,1.284-6.271,1.934-10.781,1.934a27.566,27.566,0,0,1-10.144-1.772,21.433,21.433,0,0,1-7.815-5.318,22.913,22.913,0,0,1-4.988-8.554,36.6,36.6,0,0,1-1.663-11.484,33.673,33.673,0,0,1,1.853-11.492,24.974,24.974,0,0,1,5.56-8.929,24.348,24.348,0,0,1,8.5-5.734,28.772,28.772,0,0,1,10.686-1.912,56.632,56.632,0,0,1,12.978,1.406,39.874,39.874,0,0,1,10.811,4.22v-17.755A69.341,69.341,0,0,0-4989.214-378.43Zm-95.625,0a45.856,45.856,0,0,0-17.168,3.076,37.481,37.481,0,0,0-13.417,9.229,40.672,40.672,0,0,0-8.658,14.209,53.388,53.388,0,0,0-2.886,18.017,49.015,49.015,0,0,0,2.842,17.088,38.716,38.716,0,0,0,8.526,13.528,37.338,37.338,0,0,0,13.037,8.811,44,44,0,0,0,16.377,2.937,44.6,44.6,0,0,0,16.765-3.032,37.667,37.667,0,0,0,13.265-9.1,39.946,39.946,0,0,0,8.635-14.048,52.71,52.71,0,0,0,2.878-17.886,51.676,51.676,0,0,0-2.776-17.4,38.8,38.8,0,0,0-8.328-13.653,36.241,36.241,0,0,0-12.825-8.832A43.2,43.2,0,0,0-5084.84-378.43ZM-4835-362.024a32.159,32.159,0,0,1-1.465,7.324l-9.141,28.477h21.5l-9.023-28.243a36.908,36.908,0,0,1-1.406-7.559h-.47Zm-403.242,70.489a44,44,0,0,1-16.377-2.937,37.338,37.338,0,0,1-13.037-8.811,38.719,38.719,0,0,1-8.525-13.528,49.014,49.014,0,0,1-2.842-17.087,53.4,53.4,0,0,1,2.886-18.017,40.686,40.686,0,0,1,8.658-14.209,37.481,37.481,0,0,1,13.417-9.229,45.855,45.855,0,0,1,17.168-3.076,43.2,43.2,0,0,1,16.268,2.944,36.233,36.233,0,0,1,12.824,8.832A38.808,38.808,0,0,1-5199.471-353a51.677,51.677,0,0,1,2.776,17.4,52.693,52.693,0,0,1-2.878,17.886,39.93,39.93,0,0,1-8.635,14.048,37.665,37.665,0,0,1-13.264,9.1A44.6,44.6,0,0,1-5238.238-291.535Zm.82-70.606a20.772,20.772,0,0,0-8.936,1.868,19.143,19.143,0,0,0-6.884,5.6,25.878,25.878,0,0,0-4.395,8.679,39.206,39.206,0,0,0-1.464,11.1,39.475,39.475,0,0,0,1.464,11.177,24.762,24.762,0,0,0,4.395,8.569,19.351,19.351,0,0,0,6.768,5.45,19.91,19.91,0,0,0,8.584,1.817,21.059,21.059,0,0,0,8.774-1.766,18.626,18.626,0,0,0,6.753-5.3,23.9,23.9,0,0,0,4.306-8.43,39.939,39.939,0,0,0,1.436-11.169,44.311,44.311,0,0,0-1.392-11.616,25.13,25.13,0,0,0-4.174-8.716,18.145,18.145,0,0,0-6.592-5.45A19.926,19.926,0,0,0-5237.418-362.141ZM-4636.247-293h-18.983v-34.219h-34.8V-293h-18.926v-84.024h18.926v33.516h34.8v-33.516h18.983V-293Zm-656.718,0h-18.984v-34.219h-34.8V-293h-18.926v-84.024h18.926v33.516h34.8v-33.516h18.984V-293Zm711.913,0h-18.926v-29.531l-26.659-54.492h21.621l13.535,31.348c.233.582.883,2.888,1.934,6.854h.233a30.686,30.686,0,0,1,1.817-6.621l13.77-31.582h20.039l-27.364,54.14V-293Zm-182.695,0h-18.926v-84.024h29.648a51.844,51.844,0,0,1,13.894,1.674,26.251,26.251,0,0,1,9.924,5.021,20.8,20.8,0,0,1,5.955,8.368,31.9,31.9,0,0,1,1.985,11.715,27.981,27.981,0,0,1-2.278,11.447,25.615,25.615,0,0,1-6.834,9.031,30.548,30.548,0,0,1-10.642,5.867,44.907,44.907,0,0,1-13.7,1.955h-9.023V-293Zm0-69.492V-336.3h7.441c5.016,0,8.831-1.114,11.338-3.31a10.29,10.29,0,0,0,2.834-4.138,16.322,16.322,0,0,0,.945-5.793,15.644,15.644,0,0,0-.945-5.665,10.052,10.052,0,0,0-2.834-4.047c-2.508-2.148-6.322-3.237-11.338-3.237ZM-5420.465-293h-18.926v-84.024h29.649a51.838,51.838,0,0,1,13.894,1.674,26.246,26.246,0,0,1,9.924,5.021,20.792,20.792,0,0,1,5.955,8.368,31.9,31.9,0,0,1,1.985,11.715,27.99,27.99,0,0,1-2.278,11.447,25.62,25.62,0,0,1-6.833,9.031,30.566,30.566,0,0,1-10.643,5.867,44.91,44.91,0,0,1-13.7,1.955h-9.023V-293Zm0-69.492V-336.3h7.441c5.016,0,8.831-1.114,11.338-3.31a10.29,10.29,0,0,0,2.834-4.138,16.322,16.322,0,0,0,.945-5.793,15.644,15.644,0,0,0-.945-5.665,10.057,10.057,0,0,0-2.834-4.047c-2.508-2.148-6.322-3.237-11.338-3.237Zm334.629,54.61a19.9,19.9,0,0,1-8.583-1.817,19.352,19.352,0,0,1-6.768-5.449,24.76,24.76,0,0,1-4.4-8.569,39.455,39.455,0,0,1-1.465-11.177,39.186,39.186,0,0,1,1.465-11.1,25.873,25.873,0,0,1,4.4-8.679,19.144,19.144,0,0,1,6.884-5.6,20.772,20.772,0,0,1,8.937-1.868,19.926,19.926,0,0,1,8.642,1.816,18.153,18.153,0,0,1,6.592,5.45,25.131,25.131,0,0,1,4.174,8.716,44.317,44.317,0,0,1,1.391,11.616A39.962,39.962,0,0,1-5066-323.374a23.887,23.887,0,0,1-4.307,8.43,18.62,18.62,0,0,1-6.752,5.3A21.062,21.062,0,0,1-5085.836-307.882Zm167.579-31.583h-8.2v-23.379h8.555c4.375,0,7.7.927,9.888,2.754s3.3,4.607,3.3,8.262a11.786,11.786,0,0,1-3.75,8.847A13.66,13.66,0,0,1-4918.257-339.465Z" transform="translate(5500 538)"/><path class="c" d="M5565.5,544.558h-80.921v77.993" transform="translate(-5462 -468)"/><path class="c" d="M5565.5,544.558h-80.921v77.993" transform="translate(6455.079 868.109) rotate(180)"/></svg>